<svg width="45" height="45" viewBox="0 0 45 45" fill="none" xmlns="http://www.w3.org/2000/svg">
<rect width="45" height="45" rx="10" fill="#332FE8"/>
<path fill-rule="evenodd" clip-rule="evenodd" d="M12 12C11.4477 12 11 12.4477 11 13V24C11 24.5523 11.4477 25 12 25H19.0919C19.2477 25 19.3518 25.1579 19.2523 25.2778L14.7866 30.655C14.6084 30.8695 14.5537 31.1609 14.6419 31.4255C14.8172 31.9515 15.4587 32.1479 15.8984 31.8102L23.0592 26.3124C23.9545 25.6527 24.483 24.6068 24.483 23.4947V13C24.483 12.4477 24.0353 12 23.483 12H23H20.483H12Z" fill="#E0FFCB"/>
<path fill-rule="evenodd" clip-rule="evenodd" d="M28 12C27.4477 12 27 12.4477 27 13V24C27 24.5523 27.4477 25 28 25H35.0919C35.2477 25 35.3518 25.1579 35.2523 25.2778L30.7866 30.655C30.6084 30.8695 30.5537 31.1609 30.6419 31.4255C30.8172 31.9515 31.4587 32.1479 31.8984 31.8102L39.0592 26.3124C39.9545 25.6527 40.483 24.6068 40.483 23.4947V13C40.483 12.4477 40.0353 12 39.483 12H39H36.483H28Z" fill="#E0FFCB"/>
<path d="M71.5 41C71.5 45.1366 70.6852 49.2328 69.1022 53.0545C67.5192 56.8763 65.1989 60.3488 62.2739 63.2739C59.3488 66.1989 55.8763 68.5192 52.0545 70.1022C48.2328 71.6852 44.1366 72.5 40 72.5" stroke="#E0FFCB" stroke-width="13"/>
</svg>
